<?xml version="1.0" standalone="no"?>
<!DOCTYPE svg PUBLIC "-//W3C//DTD SVG 20010904//EN"
 "http://www.w3.org/TR/2001/REC-SVG-20010904/DTD/svg10.dtd">
<svg version="1.0" xmlns="http://www.w3.org/2000/svg"
 width="700.000000pt" height="700.000000pt" viewBox="0 0 700.000000 700.000000"
 preserveAspectRatio="xMidYMid meet">
<metadata>
Created by potrace 1.11, written by Peter Selinger 2001-2013
</metadata>
<g transform="translate(0.000000,700.000000) scale(0.100000,-0.100000)"
fill="#000000" stroke="none">
<path d="M0 3500 l0 -3500 3500 0 3500 0 0 3500 0 3500 -3500 0 -3500 0 0
-3500z m5280 2681 c0 -5 18 -11 40 -15 26 -4 40 -11 40 -21 0 -8 7 -15 15 -15
8 0 15 -4 15 -10 0 -5 7 -10 15 -10 8 0 15 -5 15 -11 0 -14 25 -39 39 -39 6 0
11 -7 11 -15 0 -8 7 -15 15 -15 8 0 15 -7 15 -15 0 -8 5 -15 11 -15 11 0 39
-24 39 -34 0 -8 38 -46 46 -46 10 0 34 -28 34 -39 0 -6 7 -11 15 -11 8 0 15
-7 15 -15 0 -8 5 -15 11 -15 6 0 17 -6 25 -14 8 -8 14 -19 14 -25 0 -6 7 -11
15 -11 8 0 15 -7 15 -15 0 -8 7 -15 15 -15 8 0 15 -5 15 -11 0 -14 25 -39 39
-39 6 0 11 -7 11 -15 0 -8 7 -15 15 -15 8 0 15 -7 15 -15 0 -8 5 -15 11 -15
11 0 39 -24 39 -34 0 -8 38 -46 46 -46 10 0 34 -28 34 -39 0 -6 7 -11 15 -11
8 0 15 -7 15 -15 0 -8 5 -15 11 -15 6 0 17 -6 25 -14 8 -8 14 -19 14 -25 0 -6
7 -11 15 -11 8 0 15 -7 15 -15 0 -8 7 -15 15 -15 8 0 15 -7 15 -15 0 -8 5 -15
10 -15 6 0 10 -7 10 -15 0 -8 7 -15 15 -15 10 0 15 -10 15 -34 0 -19 5 -36 12
-38 16 -6 15 -181 -1 -186 -6 -2 -11 -17 -11 -33 0 -19 -5 -29 -15 -29 -8 0
-15 -5 -15 -11 0 -14 -25 -39 -39 -39 -6 0 -11 -7 -11 -15 0 -8 -7 -15 -15
-15 -8 0 -15 -5 -15 -11 0 -14 -55 -69 -69 -69 -6 0 -11 -5 -11 -11 0 -14 -55
-69 -69 -69 -6 0 -11 -5 -11 -11 0 -14 -55 -69 -69 -69 -6 0 -11 -7 -11 -15 0
-8 -7 -15 -15 -15 -8 0 -15 -5 -15 -11 0 -14 -25 -39 -39 -39 -6 0 -11 -7 -11
-15 0 -8 -7 -15 -15 -15 -8 0 -15 -5 -15 -11 0 -14 -55 -69 -69 -69 -6 0 -11
-5 -11 -11 0 -12 -54 -69 -65 -69 -4 0 -29 23 -56 50 -27 28 -53 50 -59 50 -5
0 -10 5 -10 10 0 6 -11 21 -25 34 -14 13 -25 28 -25 35 0 6 -5 11 -11 11 -14
0 -69 55 -69 69 0 6 -5 11 -11 11 -6 0 -51 41 -100 90 -49 50 -94 90 -99 90
-6 0 -10 5 -10 10 0 6 -11 21 -25 34 -14 13 -25 28 -25 35 0 6 -5 11 -11 11
-14 0 -69 55 -69 69 0 6 -5 11 -11 11 -6 0 -51 41 -100 90 -49 50 -94 90 -99
90 -6 0 -10 5 -10 10 0 6 -11 21 -25 34 -14 13 -25 28 -25 35 0 6 -5 11 -11
11 -7 0 -22 11 -35 25 -13 14 -28 25 -34 25 -5 0 -10 5 -10 10 0 6 -36 46 -80
89 -79 77 -90 91 -70 91 11 0 50 36 50 46 0 10 28 34 39 34 6 0 11 7 11 15 0
8 7 15 15 15 8 0 15 5 15 11 0 14 25 39 39 39 6 0 11 7 11 15 0 8 7 15 15 15
8 0 15 7 15 15 0 8 7 15 15 15 8 0 15 5 15 11 0 14 25 39 39 39 6 0 11 7 11
15 0 8 7 15 15 15 8 0 15 5 15 11 0 11 24 39 34 39 3 0 15 9 26 20 11 11 20
23 20 26 0 10 28 34 39 34 6 0 11 7 11 15 0 8 7 15 15 15 8 0 15 7 15 15 0 8
5 15 11 15 6 0 17 6 25 14 8 8 14 19 14 25 0 6 7 11 15 11 8 0 15 7 15 15 0 8
7 15 15 15 8 0 15 4 15 9 0 5 11 12 25 15 14 4 25 11 25 16 0 6 40 10 95 10
52 0 95 -4 95 -9z m-1054 -1045 c46 -47 84 -89 84 -95 0 -6 5 -11 11 -11 14 0
69 -55 69 -69 0 -6 5 -11 11 -11 6 0 66 -56 135 -124 68 -69 124 -129 124
-135 0 -6 5 -11 11 -11 6 0 24 -13 40 -29 16 -16 29 -34 29 -40 0 -6 5 -11 11
-11 6 0 51 -40 100 -90 49 -49 94 -90 99 -90 6 0 10 -5 10 -10 0 -6 11 -21 25
-34 14 -13 25 -28 25 -35 0 -6 5 -11 11 -11 6 0 24 -13 40 -29 16 -16 29 -34
29 -40 0 -6 5 -11 11 -11 5 0 37 -27 70 -59 57 -57 77 -101 44 -101 -8 0 -15
-5 -15 -11 0 -14 -55 -69 -69 -69 -6 0 -11 -7 -11 -15 0 -8 -7 -15 -15 -15 -8
0 -15 -5 -15 -11 0 -14 -25 -39 -39 -39 -6 0 -11 -7 -11 -15 0 -8 -7 -15 -15
-15 -8 0 -15 -5 -15 -11 0 -14 -55 -69 -69 -69 -6 0 -11 -5 -11 -11 0 -14 -55
-69 -69 -69 -6 0 -11 -5 -11 -11 0 -14 -55 -69 -69 -69 -6 0 -11 -7 -11 -15 0
-8 -7 -15 -15 -15 -8 0 -15 -5 -15 -11 0 -14 -25 -39 -39 -39 -6 0 -11 -7 -11
-15 0 -8 -7 -15 -15 -15 -8 0 -15 -5 -15 -11 0 -14 -55 -69 -69 -69 -6 0 -11
-5 -11 -11 0 -14 -55 -69 -69 -69 -6 0 -11 -5 -11 -11 0 -14 -55 -69 -69 -69
-6 0 -11 -7 -11 -15 0 -8 -7 -15 -15 -15 -8 0 -15 -5 -15 -11 0 -14 -25 -39
-39 -39 -6 0 -11 -7 -11 -15 0 -8 -7 -15 -15 -15 -8 0 -15 -5 -15 -11 0 -14
-25 -39 -39 -39 -6 0 -11 -7 -11 -15 0 -8 -7 -15 -15 -15 -8 0 -15 -5 -15 -11
0 -14 -55 -69 -69 -69 -6 0 -11 -5 -11 -11 0 -14 -55 -69 -69 -69 -6 0 -11 -7
-11 -15 0 -8 -7 -15 -15 -15 -8 0 -15 -5 -15 -11 0 -14 -25 -39 -39 -39 -6 0
-11 -7 -11 -15 0 -8 -7 -15 -15 -15 -8 0 -15 -5 -15 -11 0 -14 -55 -69 -69
-69 -6 0 -11 -5 -11 -11 0 -14 -55 -69 -69 -69 -6 0 -11 -5 -11 -11 0 -14 -55
-69 -69 -69 -6 0 -11 -7 -11 -15 0 -8 -7 -15 -15 -15 -8 0 -15 -5 -15 -11 0
-14 -25 -39 -39 -39 -6 0 -11 -7 -11 -15 0 -8 -7 -15 -15 -15 -8 0 -15 -5 -15
-11 0 -14 -55 -69 -69 -69 -6 0 -11 -5 -11 -11 0 -14 -55 -69 -69 -69 -6 0
-11 -5 -11 -11 0 -14 -55 -69 -69 -69 -6 0 -11 -7 -11 -15 0 -8 -7 -15 -15
-15 -8 0 -15 -5 -15 -11 0 -14 -25 -39 -39 -39 -6 0 -11 -7 -11 -15 0 -8 -7
-15 -15 -15 -8 0 -15 -5 -15 -11 0 -14 -55 -69 -69 -69 -6 0 -11 -5 -11 -11 0
-14 -55 -69 -69 -69 -6 0 -11 -7 -11 -15 0 -8 -7 -15 -15 -15 -8 0 -15 -5 -15
-11 0 -14 -25 -39 -39 -39 -6 0 -11 -7 -11 -15 0 -8 -7 -15 -15 -15 -8 0 -15
-5 -15 -11 0 -14 -25 -39 -39 -39 -6 0 -11 -7 -11 -15 0 -8 -7 -15 -15 -15 -8
0 -15 -5 -15 -11 0 -14 -55 -69 -69 -69 -6 0 -11 -5 -11 -11 0 -14 -55 -69
-69 -69 -6 0 -11 -7 -11 -15 0 -8 -7 -15 -15 -15 -8 0 -15 -5 -15 -11 0 -14
-25 -39 -39 -39 -6 0 -11 -7 -11 -15 0 -8 -7 -15 -15 -15 -8 0 -15 -5 -15 -11
0 -14 -25 -39 -39 -39 -6 0 -11 -7 -11 -15 0 -8 -7 -15 -15 -15 -8 0 -15 -5
-15 -11 0 -14 -55 -69 -69 -69 -6 0 -11 -5 -11 -11 0 -14 -55 -69 -69 -69 -6
0 -11 -7 -11 -15 0 -8 -7 -15 -15 -15 -8 0 -15 -5 -15 -11 0 -14 -25 -39 -39
-39 -6 0 -11 -7 -11 -15 0 -8 -7 -15 -15 -15 -8 0 -15 -5 -15 -11 0 -14 -25
-39 -39 -39 -6 0 -11 -7 -11 -15 0 -8 -7 -15 -15 -15 -8 0 -15 -5 -15 -11 0
-14 -55 -69 -69 -69 -6 0 -11 -5 -11 -11 0 -14 -55 -69 -69 -69 -6 0 -11 -7
-11 -15 0 -8 -7 -15 -15 -15 -8 0 -15 -5 -15 -11 0 -14 -25 -39 -39 -39 -6 0
-11 -7 -11 -15 0 -8 -5 -15 -11 -15 -6 0 -17 -7 -25 -15 -13 -13 -90 -15 -570
-15 l-554 0 0 566 0 566 29 29 c16 16 34 29 40 29 6 0 11 7 11 15 0 8 7 15 15
15 8 0 15 5 15 11 0 6 6 17 14 25 8 8 19 14 25 14 6 0 11 7 11 15 0 8 7 15 15
15 8 0 15 5 15 11 0 14 25 39 39 39 6 0 11 7 11 15 0 8 7 15 15 15 8 0 15 5
15 11 0 14 25 39 39 39 6 0 11 7 11 15 0 8 7 15 15 15 8 0 15 5 15 11 0 14 55
69 69 69 6 0 11 7 11 15 0 8 7 15 15 15 8 0 15 5 15 11 0 6 6 17 14 25 8 8 19
14 25 14 6 0 11 7 11 15 0 8 7 15 15 15 8 0 15 5 15 11 0 6 6 17 14 25 8 8 19
14 25 14 6 0 11 7 11 15 0 8 7 15 15 15 8 0 15 5 15 11 0 6 6 17 14 25 8 8 19
14 25 14 6 0 11 7 11 15 0 8 7 15 15 15 8 0 15 5 15 11 0 14 55 69 69 69 6 0
11 7 11 15 0 8 7 15 15 15 8 0 15 5 15 11 0 14 25 39 39 39 6 0 11 7 11 15 0
8 7 15 15 15 8 0 15 5 15 11 0 14 25 39 39 39 6 0 11 7 11 15 0 8 7 15 15 15
8 0 15 5 15 11 0 14 25 39 39 39 6 0 11 7 11 15 0 8 7 15 15 15 8 0 15 7 15
15 0 8 7 15 15 15 8 0 15 5 15 11 0 14 25 39 39 39 6 0 11 7 11 15 0 8 7 15
15 15 8 0 15 5 15 11 0 14 25 39 39 39 6 0 11 7 11 15 0 8 7 15 15 15 8 0 15
5 15 11 0 14 25 39 39 39 6 0 11 7 11 15 0 8 7 15 15 15 8 0 15 5 15 11 0 14
25 39 39 39 6 0 11 7 11 15 0 8 7 15 15 15 8 0 15 7 15 15 0 8 7 15 15 15 8 0
15 5 15 11 0 14 25 39 39 39 6 0 11 7 11 15 0 8 7 15 15 15 8 0 15 5 15 11 0
14 25 39 39 39 6 0 11 7 11 15 0 8 7 15 15 15 8 0 15 5 15 11 0 14 25 39 39
39 6 0 11 7 11 15 0 8 7 15 15 15 8 0 15 5 15 11 0 14 25 39 39 39 6 0 11 7
11 15 0 8 7 15 15 15 8 0 15 7 15 15 0 8 7 15 15 15 8 0 15 5 15 11 0 6 6 17
14 25 8 8 19 14 25 14 6 0 11 7 11 15 0 8 7 15 15 15 8 0 15 5 15 11 0 6 6 17
14 25 8 8 19 14 25 14 6 0 11 7 11 15 0 8 7 15 15 15 8 0 15 5 15 11 0 6 6 17
14 25 8 8 19 14 25 14 6 0 11 7 11 15 0 8 7 15 15 15 8 0 15 5 15 11 0 14 25
39 39 39 6 0 11 7 11 15 0 8 7 15 15 15 8 0 15 7 15 15 0 8 7 15 15 15 8 0 15
5 15 11 0 6 6 17 14 25 8 8 19 14 25 14 6 0 11 7 11 15 0 8 7 15 15 15 8 0 15
5 15 11 0 14 25 39 39 39 6 0 11 7 11 15 0 8 7 15 15 15 8 0 15 5 15 11 0 14
25 39 39 39 6 0 11 7 11 15 0 8 7 15 15 15 8 0 15 5 15 11 0 6 6 17 14 25 8 8
19 14 25 14 6 0 11 7 11 15 0 8 7 15 15 15 8 0 15 7 15 15 0 8 7 15 15 15 8 0
15 5 15 11 0 14 25 39 39 39 6 0 11 7 11 15 0 8 7 15 15 15 8 0 15 5 15 11 0
11 24 39 34 39 3 0 15 9 26 20 11 11 20 23 20 26 0 10 28 34 39 34 6 0 11 7
11 15 0 8 7 15 15 15 8 0 15 5 15 11 0 6 6 17 14 25 8 8 19 14 25 14 6 0 11 7
11 15 0 8 7 15 15 15 8 0 15 7 15 15 0 8 7 15 15 15 8 0 15 5 15 11 0 6 6 17
14 25 8 8 19 14 25 14 6 0 11 7 11 15 0 8 7 15 15 15 8 0 15 5 15 11 0 11 24
39 34 39 3 0 15 9 26 20 11 11 20 23 20 26 0 10 28 34 39 34 6 0 11 7 11 15 0
8 7 15 15 15 8 0 15 5 15 11 0 6 6 17 14 25 8 8 19 14 25 14 6 0 11 7 11 15 0
8 7 15 15 15 8 0 15 7 15 15 0 8 7 15 15 15 8 0 15 5 15 11 0 6 6 17 14 25 8
8 19 14 25 14 6 0 11 7 11 15 0 8 7 15 15 15 8 0 15 5 15 10 0 19 25 39 48 40
16 0 49 -26 108 -84z"/>
</g>
</svg>
